<svg
xmlns="http://www.w3.org/2000/svg"
width="50"
height="50"
viewBox="0 0 100 100"
fill="none"
>
<g id="DK LOGO 1">
    <g id="logo">
    <path id="background" d="M0 100H100V0H0V100Z" fill="#2b3137" />
    <g id="initials">
        <g id="right">
        <path
            id="path24"
            d="M65.0684 74.6921H74.3032C75.7978 74.6921 77.0092 73.523 77.0092 72.0811V27.9157C77.0092 26.4737 75.7978 25.3046 74.3032 25.3046H65.0684V74.6921Z"
            fill="white"
        />
        </g>
        <g id="dot">
        <path
            id="path28"
            d="M57.7416 74.6928H63.657V68.986H60.3611C58.9142 68.986 57.7416 70.1173 57.7416 71.5131V74.6928Z"
            fill="white"
        />
        </g>
        <g id="center">
        <path
            id="path36"
            d="M63.6571 44.8557H61.4459C58.9929 33.6868 48.7151 25.3055 36.4064 25.3055C36.3603 25.3055 36.3149 25.3083 36.2688 25.3086V35.6031C36.3149 35.6026 36.3603 35.5996 36.4064 35.5996C44.6501 35.5996 51.3329 42.0465 51.3329 49.999C51.3329 57.9518 44.6501 64.3987 36.4064 64.3987C36.3603 64.3987 36.3149 64.3954 36.2688 64.3952V74.6894C36.3149 74.6897 36.3603 74.6927 36.4064 74.6927C48.7141 74.6927 58.9915 66.3122 61.4454 55.1444H63.6571V44.8557Z"
            fill="white"
        />
        </g>
        <g id="left">
        <path
            id="path32"
            d="M25.5821 25.3063C24.1101 25.3063 22.9168 26.4576 22.9168 27.8774V72.1225C22.9168 73.5423 24.1101 74.6938 25.5821 74.6938H28.9422V71.5139C28.9422 70.1183 30.1151 68.987 31.5619 68.987H34.8578V25.3063H25.5821Z"
            fill="white"
        />
        </g>
    </g>
    </g>
</g>
</svg>